<?xml version="1.0" standalone="no"?>
<!DOCTYPE svg PUBLIC "-//W3C//DTD SVG 20010904//EN"
 "http://www.w3.org/TR/2001/REC-SVG-20010904/DTD/svg10.dtd">
<svg version="1.0" xmlns="http://www.w3.org/2000/svg"
 width="300.000000pt" height="226.000000pt" viewBox="0 0 300.000000 226.000000"
 preserveAspectRatio="xMidYMid meet">
<metadata>
Created by potrace 1.10, written by Peter Selinger 2001-2011
</metadata>
<g transform="translate(0.000000,226.000000) scale(0.100000,-0.100000)"
fill="#000000" stroke="none">
<path d="M1118 1831 c-21 -17 -23 -28 -23 -100 0 -127 -31 -118 420 -126 460
-8 430 -16 430 119 -1 136 34 125 -421 125 -359 0 -384 -1 -406 -18z m402 -71
c0 -33 -4 -60 -10 -60 -5 0 -10 21 -10 46 0 27 -4 43 -10 39 -16 -10 -13 -95
4 -95 13 0 26 -20 26 -41 0 -5 -85 -9 -200 -9 -171 0 -200 2 -200 15 0 8 5 15
10 15 6 0 10 24 10 54 0 30 -4 58 -10 61 -5 3 -10 13 -10 21 0 12 33 14 200
14 l200 0 0 -60z m397 54 c-9 -9 -377 -10 -377 -1 0 4 86 7 192 7 105 0 189
-3 185 -6z m-327 -40 c0 -14 -3 -14 -15 -4 -13 10 -15 9 -15 -8 0 -12 7 -25
16 -30 24 -13 15 -67 -11 -67 -14 0 -21 8 -23 25 -2 24 -2 24 13 6 8 -11 17
-17 21 -14 8 8 -14 48 -26 48 -6 0 -10 14 -10 30 0 25 4 30 25 30 16 0 25 -6
25 -16z m80 -39 c0 -30 5 -55 10 -55 6 0 10 25 10 55 0 30 5 55 10 55 13 0 13
-117 0 -125 -6 -3 -19 -3 -30 0 -17 5 -20 15 -20 61 0 30 -4 54 -10 54 -6 0
-10 -27 -10 -62 0 -77 -17 -66 -22 15 l-3 57 33 0 32 0 0 -55z m98 -4 c2 -37
-1 -57 -10 -62 -31 -20 -38 -10 -38 57 0 62 1 65 23 62 19 -3 22 -10 25 -57z
m26 -2 c-2 -83 -14 -88 -14 -6 0 37 3 67 8 67 4 0 6 -27 6 -61z m60 20 c6 -37
25 -69 40 -69 14 0 4 28 -14 45 -28 25 -23 60 9 60 13 0 26 -6 29 -12 2 -7 -1
-13 -7 -13 -6 0 -11 5 -11 10 0 6 -4 10 -10 10 -18 0 -10 -39 11 -50 14 -8 19
-19 17 -38 -4 -33 -36 -42 -55 -16 -12 16 -13 16 -13 1 0 -22 -36 -23 -44 -1
-8 21 -8 99 1 107 3 4 14 7 23 7 13 0 19 -12 24 -41z m6 -106 c-159 -7 -320
-7 -320 0 0 4 87 6 193 5 105 -1 163 -3 127 -5z"/>
<path d="M1176 1774 c4 -36 14 -43 14 -11 0 17 5 27 15 27 11 0 15 -13 16 -47
l2 -48 10 48 c12 57 34 62 42 10 10 -60 13 -61 14 -5 l1 52 -59 0 c-57 0 -58
-1 -55 -26z"/>
<path d="M1368 1763 c4 -31 6 -34 13 -18 12 31 10 55 -4 55 -9 0 -12 -11 -9
-37z"/>
<path d="M1430 1756 c0 -8 6 -16 13 -19 10 -4 10 -7 0 -18 -17 -17 -16 -26 2
-33 12 -4 15 4 15 39 0 33 -4 45 -15 45 -8 0 -15 -6 -15 -14z"/>
<path d="M1402 1735 c-3 -48 -13 -75 -28 -75 -9 0 -14 12 -14 35 0 19 -5 35
-11 35 -7 0 -9 -12 -5 -35 8 -40 -9 -49 -24 -12 l-9 22 0 -22 c-1 -28 -35 -32
-46 -5 -6 16 -7 16 -16 0 -16 -28 -47 -22 -52 10 l-4 27 -2 -27 c0 -16 -8 -28
-18 -31 -10 -3 58 -5 151 -6 93 0 166 2 163 6 -4 3 -22 6 -41 5 l-35 -1 -4 52
c-2 29 -4 39 -5 22z"/>
<path d="M1730 1730 c0 -27 5 -50 10 -50 6 0 10 23 10 50 0 28 -4 50 -10 50
-5 0 -10 -22 -10 -50z"/>
<path d="M1820 1730 c0 -27 5 -50 10 -50 6 0 10 23 10 50 0 28 -4 50 -10 50
-5 0 -10 -22 -10 -50z"/>
<path d="M390 1380 c0 -5 -8 -10 -19 -10 -10 0 -24 -7 -31 -15 -11 -13 -10
-23 7 -55 20 -37 21 -38 2 -43 -12 -3 -19 -13 -18 -29 1 -17 3 -18 6 -5 4 15
17 17 94 17 l89 0 0 -75 0 -75 126 0 126 0 -4 75 -3 75 87 0 88 0 0 -210 0
-210 -89 0 -88 0 5 70 5 70 -133 0 -132 0 4 -65 3 -65 -82 0 -83 0 -1 133 c0
149 -16 268 -18 142 -1 -38 -4 -114 -7 -167 -6 -94 -6 -97 19 -122 23 -23 34
-26 92 -26 77 0 101 17 111 80 4 22 11 43 16 46 12 8 125 6 149 -1 12 -4 19
-16 19 -30 0 -30 18 -77 33 -87 24 -15 161 -9 186 8 20 15 28 15 65 3 29 -10
99 -14 246 -14 195 0 207 1 249 23 l45 24 40 -24 c40 -23 47 -23 352 -26 286
-2 313 -1 332 15 22 18 30 43 31 96 1 41 23 34 93 -32 35 -32 73 -63 85 -70
12 -6 58 -11 102 -11 69 0 84 3 102 21 20 20 20 21 3 47 -9 15 -50 58 -90 95
-41 38 -74 73 -74 78 0 6 38 47 84 92 63 62 85 91 90 117 3 19 9 49 11 65 9
45 -13 68 -69 71 -40 2 -49 -1 -62 -22 -9 -13 -17 -35 -18 -49 0 -14 -2 -25
-3 -25 -1 0 -23 20 -50 45 -53 49 -72 54 -96 27 -23 -25 -21 -65 3 -87 11 -10
20 -21 20 -25 0 -18 -107 -113 -119 -105 -11 6 -21 69 -14 94 3 11 9 19 13 16
4 -3 19 5 34 16 56 44 17 119 -63 119 -56 0 -93 -37 -87 -87 2 -23 -1 -33 -10
-33 -8 0 -11 6 -8 15 4 9 0 15 -7 15 -11 0 -11 2 1 10 13 8 13 13 -2 37 -38
63 -83 32 -84 -59 0 -32 -6 -64 -12 -70 -8 -8 -12 -49 -12 -115 0 -74 -4 -105
-12 -108 -7 -2 -68 -6 -134 -9 -86 -3 -126 -1 -137 7 -12 9 -16 37 -19 127 -1
63 1 121 6 128 4 6 20 12 35 12 36 0 51 17 51 59 0 46 -8 57 -46 65 -51 11
-84 -2 -100 -40 -17 -40 -17 -47 -4 -39 6 3 7 -1 4 -9 -6 -16 -23 -22 -25 -8
0 4 -2 19 -3 34 -3 44 -27 61 -87 61 -43 0 -55 -4 -70 -24 -21 -28 -26 -64 -6
-53 8 5 7 2 -2 -9 -17 -21 -21 -18 -28 25 -6 44 -19 55 -76 61 -79 8 -119 -40
-81 -98 13 -20 14 -34 5 -94 -6 -38 -11 -99 -11 -135 0 -72 4 -68 -75 -69 -90
0 -85 -3 -85 62 0 33 -4 63 -10 66 -5 3 -10 37 -10 74 0 63 -2 69 -25 79 -19
9 -25 19 -25 44 -1 40 -20 68 -47 68 -27 0 -43 -19 -43 -51 0 -54 -7 -59 -80
-59 -73 0 -81 5 -85 63 -2 36 -12 45 -62 53 -36 5 -45 3 -67 -19 -34 -34 -33
-63 4 -95 26 -23 30 -33 30 -79 0 -63 -6 -66 -120 -61 l-75 3 -9 38 c-6 24 -6
48 0 65 8 23 15 27 49 27 47 0 63 9 76 41 6 18 5 31 -7 49 -14 22 -23 25 -80
25 -73 0 -87 -14 -81 -75 4 -33 3 -35 -26 -35 -26 0 -29 3 -22 23 18 57 18 77
-1 83 -11 3 -27 10 -36 15 -23 12 -28 11 -28 -1z m70 -40 c0 -5 -9 -10 -19
-10 -14 0 -21 -8 -23 -27 -4 -39 -28 -42 -28 -4 0 24 -4 31 -20 31 -11 0 -20
5 -20 10 0 6 25 10 55 10 30 0 55 -4 55 -10z m100 1 c0 -5 11 -11 25 -13 17
-4 25 -1 25 8 0 8 7 14 15 14 11 0 15 -11 15 -40 0 -40 -15 -54 -26 -25 -8 20
-50 19 -58 -1 -10 -25 -26 -6 -26 32 0 24 5 34 15 34 8 0 15 -4 15 -9z m260
-1 c0 -5 -17 -11 -37 -11 l-38 -2 40 -7 40 -7 -39 -2 c-43 -1 -41 -16 2 -16
15 0 28 -3 30 -7 1 -5 0 -8 -3 -8 -3 0 -24 0 -48 0 l-43 0 4 35 c4 34 5 35 48
35 24 0 44 -4 44 -10z m248 -27 c-4 -51 -25 -54 -30 -3 -3 34 -1 40 15 40 15
0 18 -7 15 -37z m400 20 c3 -10 -8 -11 -42 -7 -40 6 -46 4 -46 -11 0 -15 6
-17 46 -11 34 4 45 3 41 -7 -2 -7 -24 -12 -58 -12 -56 0 -70 13 -55 51 7 19
107 16 114 -3z m189 -20 c1 -31 -13 -43 -31 -26 -11 11 -46 14 -46 3 0 -6 -7
-10 -15 -10 -11 0 -15 11 -15 36 l0 35 53 -3 c51 -3 52 -4 54 -35z m183 27 c0
-5 -17 -11 -37 -11 l-38 -2 35 -6 c27 -5 36 -11 38 -30 3 -19 0 -22 -13 -17
-9 3 -32 6 -51 6 -32 0 -34 2 -34 35 l0 35 50 0 c28 0 50 -4 50 -10z m315 -25
c0 -27 -4 -35 -17 -35 -14 0 -18 8 -18 35 0 27 4 35 18 35 13 0 17 -8 17 -35z
m192 -2 l3 -33 -55 0 -55 0 0 36 0 35 52 -3 c51 -3 53 -4 55 -35z m119 12 c-6
-23 -3 -25 24 -25 17 0 30 -5 30 -13 0 -8 -14 -11 -45 -9 -44 4 -45 5 -45 38
0 28 4 34 21 34 18 0 20 -4 15 -25z m234 15 c0 -5 -17 -11 -37 -11 -35 -2 -35
-2 -8 -6 28 -4 44 -18 45 -35 0 -5 -22 -8 -50 -8 l-50 0 0 35 0 35 50 0 c28 0
50 -4 50 -10z m-1568 -247 l3 -148 115 0 115 0 3 148 3 147 84 0 85 0 0 -173
c0 -189 -4 -206 -58 -225 -43 -15 -403 -16 -452 -1 -67 20 -70 30 -70 226 l0
173 85 0 84 0 3 -147z m607 0 l-4 -148 172 -3 171 -2 4 -61 3 -61 -40 6 c-22
3 -121 6 -220 7 -99 1 -193 6 -208 12 -49 17 -57 48 -57 232 l0 165 91 0 91 0
-3 -147z m541 45 l0 -101 104 101 105 102 103 0 103 -1 -110 -105 -110 -105
100 -95 c55 -51 103 -94 108 -94 4 0 7 -4 7 -9 0 -4 -44 -6 -97 -3 l-98 5
-107 99 c-60 55 -108 98 -109 96 0 -1 -1 -47 -2 -101 l-2 -98 -85 -2 -85 -2
-3 208 -4 207 91 0 91 0 0 -102z"/>
<path d="M970 1204 c0 -12 4 -14 13 -7 6 6 37 11 67 12 80 3 75 11 -8 11 -60
0 -72 -3 -72 -16z"/>
<path d="M1383 1213 c3 -5 33 -8 66 -7 34 0 61 -3 61 -8 0 -4 5 -8 10 -8 6 0
10 7 10 15 0 12 -15 15 -76 15 -41 0 -73 -3 -71 -7z"/>
<path d="M1577 1204 c3 -9 9 -12 12 -7 3 4 32 9 65 10 87 3 82 13 -7 13 -66 0
-76 -2 -70 -16z"/>
<path d="M2120 1213 c0 -5 32 -8 70 -8 39 0 70 3 70 8 0 4 -31 7 -70 7 -38 0
-70 -3 -70 -7z"/>
<path d="M2479 1203 c-11 -15 -11 -16 1 -5 8 7 40 12 73 12 51 0 58 -2 53 -17
-6 -14 -4 -14 16 2 13 11 25 21 27 22 2 2 -32 3 -76 3 -65 0 -83 -3 -94 -17z"/>
<path d="M1165 1373 c-34 -9 -45 -24 -45 -63 0 -29 5 -39 24 -50 14 -7 31 -10
40 -7 8 3 29 2 45 -3 33 -9 50 1 71 41 17 30 -13 79 -48 79 -15 0 -36 2 -47 4
-11 2 -29 2 -40 -1z m52 -45 l23 -21 0 21 c0 13 6 22 15 22 11 0 15 -11 15
-39 0 -36 -2 -39 -22 -34 -13 3 -33 15 -45 25 -21 20 -21 20 -25 -1 -5 -36
-23 -28 -26 12 -3 33 -1 37 19 37 13 0 33 -10 46 -22z"/>
<path d="M1908 1358 c-22 -22 -23 -56 -2 -86 13 -18 25 -22 73 -22 31 0 62 5
69 12 17 17 15 83 -3 98 -24 20 -116 19 -137 -2z m127 -43 c0 -30 -1 -30 -57
-33 l-58 -3 0 36 0 36 58 -3 c56 -3 57 -3 57 -33z"/>
<path d="M1950 1315 c0 -10 10 -15 30 -15 20 0 30 5 30 15 0 10 -10 15 -30 15
-20 0 -30 -5 -30 -15z"/>
<path d="M371 1216 c2 -2 29 -6 59 -7 l55 -3 6 -55 6 -56 1 63 2 62 -67 0
c-36 0 -64 -2 -62 -4z"/>
<path d="M839 1211 c52 -5 66 -10 72 -26 7 -17 8 -16 8 8 l1 27 -72 -2 -73 -1
64 -6z"/>
</g>
</svg>
